<?xml version="1.0" encoding="utf-8"?>
<!-- Generator: Adobe Illustrator 18.1.1, SVG Export Plug-In . SVG Version: 6.00 Build 0)  -->
<svg version="1.1" id="Layer_1" xmlns:sketch="http://www.bohemiancoding.com/sketch/ns"
	 xmlns="http://www.w3.org/2000/svg" xmlns:xlink="http://www.w3.org/1999/xlink" x="0px" y="0px" viewBox="-266 357 79 79"
	 enable-background="new -266 357 79 79" xml:space="preserve">
<title>Layer_1 4</title>
<desc>Created with Sketch.</desc>
<g id="About-_x2F_-Jobs-_x2F_-Press" sketch:type="MSPage">
	<g id="Press---resources" transform="translate(-321.000000, -642.000000)" sketch:type="MSArtboardGroup">
		<g id="Layer_1-4" transform="translate(320.607570, 641.073321)" sketch:type="MSLayerGroup">
			<path id="Shape" sketch:type="MSShapeGroup" fill="#4075B7" d="M-214.4,397.1c0,6.2-5.4,11.3-12,11.3c-6.6,0-12-5-12-11.3
				c0-6.2,5.4-11.3,12-11.3C-219.7,385.8-214.4,390.8-214.4,397.1L-214.4,397.1z M-187.3,404.2v-14.3h-13.4c-0.6-2.1-1.4-4.1-2.4-6
				l9.4-9.4l-10.1-10.1l-9.3,9.3c-1.9-1.1-3.9-2-6.1-2.6v-13h-14.3v13c-2.2,0.6-4.2,1.5-6.1,2.6l-9.3-9.3l-10.1,10.1l9.4,9.4
				c-1,1.9-1.9,3.9-2.4,6h-13.4v14.3h13.4c0.6,2.1,1.4,4.1,2.4,6l-9.4,9.4l10.1,10.1l9.3-9.3c1.9,1.1,3.9,2,6.1,2.6v13h14.3v-13
				c2.2-0.6,4.2-1.5,6.1-2.6l9.3,9.3l10.1-10.1l-9.4-9.4c1-1.9,1.9-3.9,2.4-6H-187.3z"/>
		</g>
	</g>
</g>
</svg>
